Coordinates
version=1
nRows=16
nColumns=63
inDegrees=yes

Units are S.I. units (second, meters, Newtons, ...)
If the header above contains a line with 'inDegrees', this indicates whether rotational values are in degrees (yes) or radians (no).

endheader
time	pelvis_tilt	pelvis_list	pelvis_rotation	pelvis_tx	pelvis_ty	pelvis_tz	hip_flexion_r	hip_adduction_r	hip_rotation_r	knee_angle_r	knee_angle_r_beta	ankle_angle_r	subtalar_angle_r	mtp_angle_r	hip_flexion_l	hip_adduction_l	hip_rotation_l	knee_angle_l	knee_angle_l_beta	ankle_angle_l	subtalar_angle_l	mtp_angle_l	L5_S1_Flex_Ext	L5_S1_Lat_Bending	L5_S1_axial_rotation	L4_L5_Flex_Ext	L4_L5_Lat_Bending	L4_L5_axial_rotation	L3_L4_Flex_Ext	L3_L4_Lat_Bending	L3_L4_axial_rotation	L2_L3_Flex_Ext	L2_L3_Lat_Bending	L2_L3_axial_rotation	L1_L2_Flex_Ext	L1_L2_Lat_Bending	L1_L2_axial_rotation	L1_T12_Flex_Ext	L1_T12_Lat_Bending	L1_T12_axial_rotation	Abs_r3	Abs_r2	Abs_r1	Abs_t1	Abs_t2	neck_flexion	neck_bending	neck_rotation	arm_flex_r	arm_add_r	arm_rot_r	elbow_flex_r	pro_sup_r	wrist_flex_r	wrist_dev_r	arm_flex_l	arm_add_l	arm_rot_l	elbow_flex_l	pro_sup_l	wrist_flex_l	wrist_dev_l
7.050847	-3.856540	-2.661558	83.763144	0.177166	0.502359	1.064724	7.986542	-4.066837	2.418747	20.466843	0.357214	39.181132	0.846928	0.000000	2.257791	4.943969	-2.240784	8.205985	0.143221	35.750505	-6.646640	0.000000	-0.117422	-0.365248	3.566870	-0.218065	-0.485779	3.789799	-0.192913	-0.888063	3.789799	-0.134202	-0.888063	3.121011	-0.109038	-0.744813	2.898082	-0.067095	-0.565769	2.675152	-0.838735	-4.131755	19.837859	0.000000	0.000000	22.104131	2.253810	-3.624190	-9.096917	-13.529452	-21.642509	99.000276	80.284446	-5.142389	10.749678	-0.876553	-12.199573	26.693214	78.354836	73.760037	19.551120	-5.422447
7.067797	-4.174754	-3.026982	83.723617	0.178389	0.501694	1.063677	8.346756	-4.237902	2.798670	20.485124	0.357533	39.271383	0.403350	0.000000	2.415654	5.202907	-1.576931	7.786742	0.135904	35.635783	-7.067198	0.000000	-0.084684	-0.431242	3.424887	-0.157266	-0.573552	3.638943	-0.139127	-1.048522	3.638943	-0.096785	-1.048522	2.996777	-0.078637	-0.879389	2.782721	-0.048388	-0.667994	2.568666	-0.604887	-4.878296	19.048197	0.000000	0.000000	22.889725	2.632278	-3.113058	-7.681450	-13.811889	-22.533935	94.428634	81.882108	-6.723826	12.338605	-3.332065	-14.247600	16.350323	85.065933	80.744918	11.488797	-2.077064
7.084746	-4.414236	-3.399133	83.760443	0.179266	0.501203	1.062967	8.695575	-4.373798	2.943273	20.452334	0.356961	39.310995	0.158110	0.000000	2.603721	5.397039	-0.842728	7.397553	0.129112	35.450311	-7.522040	0.000000	-0.055587	-0.483105	3.304782	-0.103230	-0.642530	3.511330	-0.091323	-1.174623	3.511330	-0.063530	-1.174623	2.891684	-0.051618	-0.985149	2.685135	-0.031762	-0.748330	2.478586	-0.397051	-5.464986	18.380204	0.000000	0.000000	23.604330	2.867609	-2.717048	-6.445939	-14.113489	-23.622421	89.918056	83.485151	-8.304626	14.130797	-4.895515	-15.789539	8.068101	89.955136	86.506669	3.087164	1.208314
7.101695	-4.596493	-3.762912	83.865802	0.179878	0.500837	1.062566	9.022081	-4.482088	2.936140	20.381096	0.355717	39.310428	0.013753	0.000000	2.810335	5.537964	-0.137175	7.055767	0.123146	35.222286	-7.912487	0.000000	-0.031268	-0.523805	3.205188	-0.058068	-0.696660	3.405512	-0.051370	-1.273579	3.405512	-0.035736	-1.273579	2.804540	-0.029036	-1.068143	2.604215	-0.017867	-0.811374	2.403891	-0.223345	-5.925385	17.826295	0.000000	0.000000	24.240721	2.990520	-2.387068	-5.390333	-14.357030	-24.912359	85.611245	84.979924	-9.816414	16.029665	-5.441026	-16.831347	1.237919	92.739498	90.773278	-3.399150	4.339199
7.118644	-4.690034	-4.090130	84.017929	0.180153	0.500660	1.062517	9.302037	-4.541814	2.760736	20.279228	0.353939	39.259588	0.021131	0.000000	3.005028	5.601697	0.531403	6.760205	0.117988	34.944636	-8.270025	0.000000	-0.014207	-0.547582	3.136641	-0.026385	-0.728284	3.332681	-0.023342	-1.331391	3.332681	-0.016238	-1.331391	2.744561	-0.013193	-1.116629	2.548521	-0.008118	-0.848204	2.352481	-0.101483	-6.194356	17.445056	0.000000	0.000000	24.768146	2.977280	-2.139918	-4.525089	-14.528808	-26.449701	81.630894	86.280780	-11.341362	17.961551	-4.900516	-17.167907	-3.548166	93.124121	93.289968	-8.081422	6.937434
7.135593	-4.653279	-4.334455	84.209181	0.179918	0.500813	1.062865	9.471842	-4.522077	2.423372	20.115677	0.351085	39.117484	0.165066	0.000000	3.143471	5.558526	1.124819	6.518644	0.113772	34.616426	-8.567363	0.000000	-0.007229	-0.545212	3.138946	-0.013425	-0.725132	3.335130	-0.011876	-1.325629	3.335130	-0.008262	-1.325629	2.746577	-0.006713	-1.111796	2.550393	-0.004131	-0.844534	2.354209	-0.051635	-6.167548	17.457874	0.000000	0.000000	25.084453	2.695852	-2.149044	-3.995419	-14.596752	-28.519329	78.168486	87.310873	-12.874235	19.875294	-3.204011	-16.659755	-5.511819	90.891171	93.737497	-11.665346	8.978955
7.152542	-4.434285	-4.447058	84.417361	0.179032	0.501452	1.063750	9.487061	-4.390399	1.889633	19.892615	0.347192	38.850696	0.519407	0.000000	3.181017	5.372896	1.669901	6.332382	0.110521	34.223124	-8.873190	0.000000	-0.014508	-0.507402	3.233854	-0.026943	-0.674845	3.435970	-0.023835	-1.233697	3.435970	-0.016581	-1.233697	2.829622	-0.013472	-1.034694	2.627507	-0.008290	-0.785966	2.425391	-0.103630	-5.739832	17.985727	0.000000	0.000000	25.107522	2.106559	-2.522237	-3.850712	-14.602547	-31.203683	75.279568	87.870362	-14.414416	21.789113	-0.306773	-15.040502	-4.531348	85.887988	91.845852	-14.016089	10.124572
7.169492	-3.996542	-4.384259	84.636757	0.177427	0.502688	1.065232	9.299106	-4.116373	1.154296	19.602927	0.342136	38.431349	1.089574	0.000000	3.076398	5.013492	2.160729	6.206806	0.108329	33.777654	-9.179618	0.000000	-0.039069	-0.427599	3.441995	-0.072555	-0.568707	3.657120	-0.064186	-1.039665	3.657120	-0.044652	-1.039665	3.011746	-0.036279	-0.871960	2.796621	-0.022324	-0.662351	2.581496	-0.279066	-4.837088	19.143344	0.000000	0.000000	24.774278	1.153802	-3.387799	-4.171971	-14.587501	-34.580584	73.024255	87.986148	-15.969886	23.638892	3.836446	-12.165118	-0.468801	78.019463	87.341681	-14.403397	10.388043
7.186441	-3.837555	-4.509101	84.890472	0.176591	0.503105	1.065934	9.327409	-4.053837	0.573043	19.417942	0.338907	38.256486	1.485676	0.000000	3.137098	4.886100	2.665312	6.063825	0.105834	33.369790	-9.482509	0.000000	-0.043145	-0.397181	3.444580	-0.080124	-0.528251	3.659866	-0.070883	-0.965706	3.659866	-0.049310	-0.965706	3.014008	-0.040064	-0.809931	2.798721	-0.024653	-0.615233	2.583435	-0.308180	-4.492990	19.157721	0.000000	0.000000	24.886304	0.759127	-3.255579	-3.893995	-14.372062	-36.551259	71.069464	88.040224	-17.516008	25.433128	5.930817	-10.801941	-3.117855	74.767481	87.455113	-17.908912	11.642458
7.203390	-3.671587	-4.602054	85.155010	0.175673	0.503519	1.066557	9.319755	-3.998289	-0.036895	19.245446	0.335896	38.101482	1.924432	0.000000	3.172046	4.759667	3.148692	5.948388	0.103819	32.972343	-9.789307	0.000000	-0.048106	-0.364536	3.429692	-0.089337	-0.484833	3.644047	-0.079033	-0.886333	3.644047	-0.054980	-0.886333	3.000980	-0.044671	-0.743362	2.786624	-0.027488	-0.564667	2.572269	-0.343614	-4.123706	19.074916	0.000000	0.000000	24.972806	0.388688	-3.046774	-3.684357	-14.113941	-38.253852	69.647656	88.064467	-18.986077	26.994928	7.807822	-9.295274	-6.275494	71.655602	87.490805	-20.508934	12.386116
7.220339	-3.488135	-4.674635	85.436895	0.174684	0.503915	1.067083	9.284878	-3.934024	-0.668318	19.084585	0.333089	37.959031	2.377287	0.000000	3.204043	4.617993	3.556823	5.885757	0.102726	32.635314	-10.005092	0.000000	-0.052163	-0.328847	3.396457	-0.096872	-0.437366	3.608736	-0.085699	-0.799558	3.608736	-0.059617	-0.799558	2.971900	-0.048439	-0.670584	2.759621	-0.029806	-0.509384	2.547343	-0.372596	-3.719980	18.890075	0.000000	0.000000	25.038267	0.076014	-2.747156	-3.589393	-13.849609	-39.674654	68.762747	88.265624	-20.279785	28.232579	9.386163	-7.694812	-9.834038	68.817705	87.499740	-22.177922	12.637364
7.237288	-3.300335	-4.728082	85.723458	0.173645	0.504284	1.067485	9.224170	-3.868355	-1.287505	18.931846	0.330423	37.834846	2.816446	0.000000	3.239282	4.480299	3.929415	5.888014	0.102765	32.345117	-10.231266	0.000000	-0.055693	-0.291786	3.348971	-0.103428	-0.388076	3.558281	-0.091498	-0.709450	3.558281	-0.063652	-0.709450	2.930349	-0.051717	-0.595011	2.721039	-0.031823	-0.451977	2.511728	-0.397811	-3.300746	18.625970	0.000000	0.000000	25.080371	-0.213698	-2.383529	-3.656148	-13.605484	-40.803919	68.392942	88.559723	-21.309959	29.053584	10.613756	-6.058102	-13.628506	66.360353	87.492715	-23.032796	12.427783
7.254237	-3.113282	-4.768041	85.990447	0.172607	0.504612	1.067731	9.152979	-3.802241	-1.867817	18.803925	0.328190	37.723611	3.244147	0.000000	3.269752	4.345368	4.230740	5.931049	0.103516	32.111447	-10.424391	0.000000	-0.058280	-0.255248	3.293825	-0.108232	-0.339479	3.499689	-0.095749	-0.620609	3.499689	-0.066608	-0.620609	2.882097	-0.054119	-0.520501	2.676233	-0.033301	-0.395379	2.470369	-0.416290	-2.887414	18.319266	0.000000	0.000000	25.130506	-0.451510	-2.010537	-3.919922	-13.419315	-41.602044	68.444172	88.886641	-22.009551	29.366909	11.474763	-4.423997	-17.550664	64.372972	87.437492	-23.143545	11.868490
7.271186	-2.930541	-4.798465	86.222401	0.171575	0.504893	1.067825	9.073910	-3.735540	-2.386353	18.691182	0.326223	37.629864	3.643343	0.000000	3.307744	4.217943	4.430591	6.027052	0.105192	31.941337	-10.592412	0.000000	-0.059602	-0.219322	3.231096	-0.110687	-0.291699	3.433040	-0.097920	-0.533260	3.433040	-0.068119	-0.533260	2.827209	-0.055346	-0.447242	2.625266	-0.034057	-0.339730	2.423322	-0.425731	-2.481016	17.970388	0.000000	0.000000	25.178993	-0.675862	-1.626848	-4.328965	-13.311082	-42.065047	68.758902	89.156515	-22.358752	29.216508	11.951229	-2.851471	-21.479746	62.893268	87.350421	-22.580815	11.057380
7.288136	-2.758183	-4.816162	86.434782	0.170600	0.505128	1.067737	8.977408	-3.670038	-2.839978	18.587207	0.324408	37.556426	3.998151	0.000000	3.346976	4.109400	4.666842	6.168729	0.107665	31.801692	-10.896503	0.000000	-0.059937	-0.185622	3.159755	-0.111310	-0.246877	3.357240	-0.098471	-0.451321	3.357240	-0.068502	-0.451321	2.764786	-0.055658	-0.378520	2.567301	-0.034248	-0.287528	2.369817	-0.428126	-2.099789	17.573612	0.000000	0.000000	25.218760	-0.853826	-1.194083	-4.842066	-13.247444	-42.238108	69.208925	89.293501	-22.428134	28.745746	12.044064	-1.415082	-25.218128	61.919536	87.221926	-21.724473	9.989582
7.305085	-2.603256	-4.833412	86.626568	0.169699	0.505301	1.067499	8.885644	-3.609211	-3.213035	18.504617	0.322966	37.499384	4.285244	0.000000	3.413535	4.009122	4.734326	6.371841	0.111210	31.763374	-11.044279	0.000000	-0.057970	-0.155460	3.087342	-0.107656	-0.206762	3.280301	-0.095239	-0.377985	3.280301	-0.066254	-0.377985	2.701424	-0.053831	-0.317014	2.508465	-0.033124	-0.240807	2.315506	-0.414075	-1.758593	17.170869	0.000000	0.000000	25.259988	-1.027446	-0.779975	-5.420058	-13.212303	-42.213605	69.664489	89.252102	-22.276154	28.238015	11.873891	-0.124661	-28.851538	61.380142	87.057533	-20.224087	9.077196
